<svg version="1.1" xmlns="http://www.w3.org/2000/svg" xmlns:xlink="http://www.w3.org/1999/xlink" width="927.2707693259244" height="484.6733730832961"><defs/><g><rect fill="rgb(87.0344827586, 93.5620689655, 102.2655172414)" stroke="none" x="0" y="0" width="927.2707693259244" height="484.6733730832961" transform="matrix(1 0 0 1 0 0)"/><g><path fill="#68a4d9" stroke="none" paint-order="stroke fill markers" d=" M 590.8907474765257 167.01901662726684 A 3 3 0 1 0 590.8907459765259 167.02201662676683"/><path fill="none" stroke="#68a4d9" paint-order="fill stroke markers" d=" M 587.8907474765257 167.01901662726684 C 687.8907474765257 167.01901662726684 563.090417035165 362.01901662726686 663.090417035165 362.01901662726686" stroke-miterlimit="10" stroke-dasharray=""/><path fill="#68a4d9" stroke="none" paint-order="stroke fill markers" d=" M 663.090417035165 362.01901662726686 L 655.090417035165 367.01901662726686 L 655.090417035165 357.01901662726686 L 663.090417035165 362.01901662726686"/><path fill="#37f989" stroke="none" paint-order="stroke fill markers" d=" M 670.2707693259244 99.01901662726684 A 3 3 0 1 0 670.2707678259246 99.02201662676684"/><path fill="none" stroke="#37f989" paint-order="fill stroke markers" d=" M 667.2707693259244 99.01901662726684 C 567.2707693259244 99.01901662726684 687.8907474765257 167.01901662726684 587.8907474765257 167.01901662726684" stroke-miterlimit="10" stroke-dasharray=""/><path fill="#37f989" stroke="none" paint-order="stroke fill markers" d=" M 587.8907474765257 167.01901662726684 L 595.8907474765257 172.01901662726684 L 595.8907474765257 162.01901662726684 L 587.8907474765257 167.01901662726684"/><path fill="#37f989" stroke="none" paint-order="stroke fill markers" d=" M 277.5481467297345 287.01901662726686 A 3 3 0 1 0 277.54814522973464 287.0220166267668"/><path fill="none" stroke="#37f989" paint-order="fill stroke markers" d=" M 274.5481467297345 287.01901662726686 C 374.5481467297345 287.01901662726686 275.26575129122295 167.01901662726684 375.26575129122295 167.01901662726684" stroke-miterlimit="10" stroke-dasharray=""/><path fill="#37f989" stroke="none" paint-order="stroke fill markers" d=" M 375.26575129122295 167.01901662726684 L 367.26575129122295 172.01901662726684 L 367.26575129122295 162.01901662726684 L 375.26575129122295 167.01901662726684"/><path fill="#d8b330" stroke="none" paint-order="stroke fill markers" d=" M 97.54814672973453 305.01901662726686 A 3 3 0 1 0 97.54814522973464 305.0220166267668"/><path fill="none" stroke="#d8b330" paint-order="fill stroke markers" d=" M 94.54814672973453 305.01901662726686 C -5.451853270265474 305.01901662726686 -40 140.01901662726684 60 140.01901662726684" stroke-miterlimit="10" stroke-dasharray=""/><path fill="#d8b330" stroke="none" paint-order="stroke fill markers" d=" M 60 140.01901662726684 L 52 145.01901662726684 L 52 135.01901662726684 L 60 140.01901662726684"/><rect fill="#fff" stroke="none" x="223.03067930777212" y="211.6543564560293" width="185.72916984558105" height="102" transform="matrix(1 0 0 1 440.0597377273929 111.01901662726684)"/><rect fill="#68a4d9" stroke="none" x="223.03067930777212" y="211.6543564560293" width="185.72916984558105" height="30" transform="matrix(1 0 0 1 440.0597377273929 111.01901662726684)"/><text fill="#fff" stroke="none" font-family="Roboto, &quot;Helvetica Neue&quot;, Arial, sans-serif" font-size="12px" font-style="normal" font-weight="bold" text-decoration="undefined" x="235.03067930777212" y="220.6543564560293" text-anchor="start" dominant-baseline="text-before-edge" transform="matrix(1 0 0 1 440.0597377273929 111.01901662726684)">User</text><rect fill="#50565e" stroke="none" x="223.03067930777212" y="241.6543564560293" width="185.72916984558105" height="18" transform="matrix(1 0 0 1 440.0597377273929 111.01901662726684)"/><text fill="#333" stroke="none" font-family="Roboto, &quot;Helvetica Neue&quot;, Arial, sans-serif" font-size="12px" font-style="normal" font-weight="bold" text-decoration="undefined" x="360.8848491533532" y="244.6543564560293" text-anchor="start" dominant-baseline="text-before-edge" transform="matrix(1 0 0 1 440.0597377273929 111.01901662726684)">integer</text><text fill="#333" stroke="none" font-family="Roboto, &quot;Helvetica Neue&quot;, Arial, sans-serif" font-size="12px" font-style="normal" font-weight="bold" text-decoration="undefined" x="235.03067930777212" y="244.6543564560293" text-anchor="start" dominant-baseline="text-before-edge" transform="matrix(1 0 0 1 440.0597377273929 111.01901662726684)">id</text><path fill="none" stroke="#eee" paint-order="fill stroke markers" d=" M 663.090417035165 370.67337308329616 L 848.8195868807461 370.67337308329616" stroke-miterlimit="10" stroke-dasharray=""/><rect fill="#50565e" stroke="none" x="223.03067930777212" y="259.6543564560293" width="185.72916984558105" height="18" transform="matrix(1 0 0 1 440.0597377273929 111.01901662726684)"/><text fill="#eee" stroke="none" font-family="Roboto, &quot;Helvetica Neue&quot;, Arial, sans-serif" font-size="12px" font-style="normal" font-weight="normal" text-decoration="undefined" x="362.8640170915856" y="262.6543564560293" text-anchor="start" dominant-baseline="text-before-edge" transform="matrix(1 0 0 1 440.0597377273929 111.01901662726684)">integer</text><text fill="#eee" stroke="none" font-family="Roboto, &quot;Helvetica Neue&quot;, Arial, sans-serif" font-size="12px" font-style="normal" font-weight="normal" text-decoration="undefined" x="235.03067930777212" y="262.6543564560293" text-anchor="start" dominant-baseline="text-before-edge" transform="matrix(1 0 0 1 440.0597377273929 111.01901662726684)">telegram_id</text><path fill="none" stroke="#eee" paint-order="fill stroke markers" d=" M 663.090417035165 388.67337308329616 L 848.8195868807461 388.67337308329616" stroke-miterlimit="10" stroke-dasharray=""/><rect fill="#50565e" stroke="none" x="223.03067930777212" y="277.6543564560293" width="185.72916984558105" height="18" transform="matrix(1 0 0 1 440.0597377273929 111.01901662726684)"/><text fill="#eee" stroke="none" font-family="Roboto, &quot;Helvetica Neue&quot;, Arial, sans-serif" font-size="12px" font-style="normal" font-weight="normal" text-decoration="undefined" x="368.6765170915856" y="280.6543564560293" text-anchor="start" dominant-baseline="text-before-edge" transform="matrix(1 0 0 1 440.0597377273929 111.01901662726684)">string</text><text fill="#eee" stroke="none" font-family="Roboto, &quot;Helvetica Neue&quot;, Arial, sans-serif" font-size="12px" font-style="normal" font-weight="normal" text-decoration="undefined" x="235.03067930777212" y="280.6543564560293" text-anchor="start" dominant-baseline="text-before-edge" transform="matrix(1 0 0 1 440.0597377273929 111.01901662726684)">username</text><path fill="none" stroke="#eee" paint-order="fill stroke markers" d=" M 663.090417035165 406.67337308329616 L 848.8195868807461 406.67337308329616" stroke-miterlimit="10" stroke-dasharray=""/><rect fill="#50565e" stroke="none" x="223.03067930777212" y="295.6543564560293" width="185.72916984558105" height="18" transform="matrix(1 0 0 1 440.0597377273929 111.01901662726684)"/><text fill="#eee" stroke="none" font-family="Roboto, &quot;Helvetica Neue&quot;, Arial, sans-serif" font-size="12px" font-style="normal" font-weight="normal" text-decoration="undefined" x="375.6140170915856" y="298.6543564560293" text-anchor="start" dominant-baseline="text-before-edge" transform="matrix(1 0 0 1 440.0597377273929 111.01901662726684)">date</text><text fill="#eee" stroke="none" font-family="Roboto, &quot;Helvetica Neue&quot;, Arial, sans-serif" font-size="12px" font-style="normal" font-weight="normal" text-decoration="undefined" x="235.03067930777212" y="298.6543564560293" text-anchor="start" dominant-baseline="text-before-edge" transform="matrix(1 0 0 1 440.0597377273929 111.01901662726684)">registration_date</text><path fill="none" stroke="#eee" paint-order="fill stroke markers" d=" M 663.090417035165 424.67337308329616 L 848.8195868807461 424.67337308329616" stroke-miterlimit="10" stroke-dasharray=""/><rect fill="#fff" stroke="none" x="-64.79398643616994" y="16.7330120602553" width="212.62499618530273" height="192" transform="matrix(1 0 0 1 440.0597377273929 111.01901662726684)"/><rect fill="#37f989" stroke="none" x="-64.79398643616994" y="16.7330120602553" width="212.62499618530273" height="30" transform="matrix(1 0 0 1 440.0597377273929 111.01901662726684)"/><text fill="#333" stroke="none" font-family="Roboto, &quot;Helvetica Neue&quot;, Arial, sans-serif" font-size="12px" font-style="normal" font-weight="bold" text-decoration="undefined" x="-52.793986436169945" y="25.7330120602553" text-anchor="start" dominant-baseline="text-before-edge" transform="matrix(1 0 0 1 440.0597377273929 111.01901662726684)">Track</text><rect fill="#50565e" stroke="none" x="-64.79398643616994" y="46.733012060255305" width="212.62499618530273" height="18" transform="matrix(1 0 0 1 440.0597377273929 111.01901662726684)"/><text fill="#333" stroke="none" font-family="Roboto, &quot;Helvetica Neue&quot;, Arial, sans-serif" font-size="12px" font-style="normal" font-weight="bold" text-decoration="undefined" x="99.95600974913279" y="49.733012060255305" text-anchor="start" dominant-baseline="text-before-edge" transform="matrix(1 0 0 1 440.0597377273929 111.01901662726684)">integer</text><text fill="#333" stroke="none" font-family="Roboto, &quot;Helvetica Neue&quot;, Arial, sans-serif" font-size="12px" font-style="normal" font-weight="bold" text-decoration="undefined" x="-52.793986436169945" y="49.733012060255305" text-anchor="start" dominant-baseline="text-before-edge" transform="matrix(1 0 0 1 440.0597377273929 111.01901662726684)">id</text><path fill="none" stroke="#eee" paint-order="fill stroke markers" d=" M 375.26575129122295 175.75202868752214 L 587.8907474765257 175.75202868752214" stroke-miterlimit="10" stroke-dasharray=""/><rect fill="#50565e" stroke="none" x="-64.79398643616994" y="64.7330120602553" width="212.62499618530273" height="18" transform="matrix(1 0 0 1 440.0597377273929 111.01901662726684)"/><text fill="#eee" stroke="none" font-family="Roboto, &quot;Helvetica Neue&quot;, Arial, sans-serif" font-size="12px" font-style="normal" font-weight="normal" text-decoration="undefined" x="101.93517768736521" y="67.7330120602553" text-anchor="start" dominant-baseline="text-before-edge" transform="matrix(1 0 0 1 440.0597377273929 111.01901662726684)">integer</text><text fill="#eee" stroke="none" font-family="Roboto, &quot;Helvetica Neue&quot;, Arial, sans-serif" font-size="12px" font-style="normal" font-weight="normal" text-decoration="undefined" x="-52.793986436169945" y="67.7330120602553" text-anchor="start" dominant-baseline="text-before-edge" transform="matrix(1 0 0 1 440.0597377273929 111.01901662726684)">user_id</text><path fill="none" stroke="#eee" paint-order="fill stroke markers" d=" M 375.26575129122295 193.75202868752214 L 587.8907474765257 193.75202868752214" stroke-miterlimit="10" stroke-dasharray=""/><rect fill="#50565e" stroke="none" x="-64.79398643616994" y="82.7330120602553" width="212.62499618530273" height="18" transform="matrix(1 0 0 1 440.0597377273929 111.01901662726684)"/><text fill="#eee" stroke="none" font-family="Roboto, &quot;Helvetica Neue&quot;, Arial, sans-serif" font-size="12px" font-style="normal" font-weight="normal" text-decoration="undefined" x="99.22684181090037" y="85.7330120602553" text-anchor="start" dominant-baseline="text-before-edge" transform="matrix(1 0 0 1 440.0597377273929 111.01901662726684)">varchar</text><text fill="#eee" stroke="none" font-family="Roboto, &quot;Helvetica Neue&quot;, Arial, sans-serif" font-size="12px" font-style="normal" font-weight="normal" text-decoration="undefined" x="-52.793986436169945" y="85.7330120602553" text-anchor="start" dominant-baseline="text-before-edge" transform="matrix(1 0 0 1 440.0597377273929 111.01901662726684)">origin_airport</text><path fill="none" stroke="#eee" paint-order="fill stroke markers" d=" M 375.26575129122295 211.75202868752214 L 587.8907474765257 211.75202868752214" stroke-miterlimit="10" stroke-dasharray=""/><rect fill="#50565e" stroke="none" x="-64.79398643616994" y="100.7330120602553" width="212.62499618530273" height="18" transform="matrix(1 0 0 1 440.0597377273929 111.01901662726684)"/><text fill="#eee" stroke="none" font-family="Roboto, &quot;Helvetica Neue&quot;, Arial, sans-serif" font-size="12px" font-style="normal" font-weight="normal" text-decoration="undefined" x="99.22684181090037" y="103.7330120602553" text-anchor="start" dominant-baseline="text-before-edge" transform="matrix(1 0 0 1 440.0597377273929 111.01901662726684)">varchar</text><text fill="#eee" stroke="none" font-family="Roboto, &quot;Helvetica Neue&quot;, Arial, sans-serif" font-size="12px" font-style="normal" font-weight="normal" text-decoration="undefined" x="-52.793986436169945" y="103.7330120602553" text-anchor="start" dominant-baseline="text-before-edge" transform="matrix(1 0 0 1 440.0597377273929 111.01901662726684)">destination_airport</text><path fill="none" stroke="#eee" paint-order="fill stroke markers" d=" M 375.26575129122295 229.75202868752214 L 587.8907474765257 229.75202868752214" stroke-miterlimit="10" stroke-dasharray=""/><rect fill="#50565e" stroke="none" x="-64.79398643616994" y="118.7330120602553" width="212.62499618530273" height="18" transform="matrix(1 0 0 1 440.0597377273929 111.01901662726684)"/><text fill="#eee" stroke="none" font-family="Roboto, &quot;Helvetica Neue&quot;, Arial, sans-serif" font-size="12px" font-style="normal" font-weight="normal" text-decoration="undefined" x="114.68517768736521" y="121.7330120602553" text-anchor="start" dominant-baseline="text-before-edge" transform="matrix(1 0 0 1 440.0597377273929 111.01901662726684)">date</text><text fill="#eee" stroke="none" font-family="Roboto, &quot;Helvetica Neue&quot;, Arial, sans-serif" font-size="12px" font-style="normal" font-weight="normal" text-decoration="undefined" x="-52.793986436169945" y="121.7330120602553" text-anchor="start" dominant-baseline="text-before-edge" transform="matrix(1 0 0 1 440.0597377273929 111.01901662726684)">departure_date</text><path fill="none" stroke="#eee" paint-order="fill stroke markers" d=" M 375.26575129122295 247.75202868752214 L 587.8907474765257 247.75202868752214" stroke-miterlimit="10" stroke-dasharray=""/><rect fill="#50565e" stroke="none" x="-64.79398643616994" y="136.7330120602553" width="212.62499618530273" height="18" transform="matrix(1 0 0 1 440.0597377273929 111.01901662726684)"/><text fill="#eee" stroke="none" font-family="Roboto, &quot;Helvetica Neue&quot;, Arial, sans-serif" font-size="12px" font-style="normal" font-weight="normal" text-decoration="undefined" x="101.93517768736521" y="139.7330120602553" text-anchor="start" dominant-baseline="text-before-edge" transform="matrix(1 0 0 1 440.0597377273929 111.01901662726684)">integer</text><text fill="#eee" stroke="none" font-family="Roboto, &quot;Helvetica Neue&quot;, Arial, sans-serif" font-size="12px" font-style="normal" font-weight="normal" text-decoration="undefined" x="-52.793986436169945" y="139.7330120602553" text-anchor="start" dominant-baseline="text-before-edge" transform="matrix(1 0 0 1 440.0597377273929 111.01901662726684)">target_price</text><path fill="none" stroke="#eee" paint-order="fill stroke markers" d=" M 375.26575129122295 265.75202868752217 L 587.8907474765257 265.75202868752217" stroke-miterlimit="10" stroke-dasharray=""/><rect fill="#50565e" stroke="none" x="-64.79398643616994" y="154.7330120602553" width="212.62499618530273" height="18" transform="matrix(1 0 0 1 440.0597377273929 111.01901662726684)"/><text fill="#eee" stroke="none" font-family="Roboto, &quot;Helvetica Neue&quot;, Arial, sans-serif" font-size="12px" font-style="normal" font-weight="normal" text-decoration="undefined" x="107.74767768736521" y="157.7330120602553" text-anchor="start" dominant-baseline="text-before-edge" transform="matrix(1 0 0 1 440.0597377273929 111.01901662726684)">string</text><text fill="#eee" stroke="none" font-family="Roboto, &quot;Helvetica Neue&quot;, Arial, sans-serif" font-size="12px" font-style="normal" font-weight="normal" text-decoration="undefined" x="-52.793986436169945" y="157.7330120602553" text-anchor="start" dominant-baseline="text-before-edge" transform="matrix(1 0 0 1 440.0597377273929 111.01901662726684)">status</text><path fill="none" stroke="#eee" paint-order="fill stroke markers" d=" M 375.26575129122295 283.75202868752217 L 587.8907474765257 283.75202868752217" stroke-miterlimit="10" stroke-dasharray=""/><rect fill="#50565e" stroke="none" x="-64.79398643616994" y="172.7330120602553" width="212.62499618530273" height="18" transform="matrix(1 0 0 1 440.0597377273929 111.01901662726684)"/><text fill="#eee" stroke="none" font-family="Roboto, &quot;Helvetica Neue&quot;, Arial, sans-serif" font-size="12px" font-style="normal" font-weight="normal" text-decoration="undefined" x="114.68517768736521" y="175.7330120602553" text-anchor="start" dominant-baseline="text-before-edge" transform="matrix(1 0 0 1 440.0597377273929 111.01901662726684)">date</text><text fill="#eee" stroke="none" font-family="Roboto, &quot;Helvetica Neue&quot;, Arial, sans-serif" font-size="12px" font-style="normal" font-weight="normal" text-decoration="undefined" x="-52.793986436169945" y="175.7330120602553" text-anchor="start" dominant-baseline="text-before-edge" transform="matrix(1 0 0 1 440.0597377273929 111.01901662726684)">created_at</text><path fill="none" stroke="#eee" paint-order="fill stroke markers" d=" M 375.26575129122295 301.75202868752217 L 587.8907474765257 301.75202868752217" stroke-miterlimit="10" stroke-dasharray=""/><rect fill="#50565e" stroke="none" x="-64.79398643616994" y="190.7330120602553" width="212.62499618530273" height="18" transform="matrix(1 0 0 1 440.0597377273929 111.01901662726684)"/><text fill="#eee" stroke="none" font-family="Roboto, &quot;Helvetica Neue&quot;, Arial, sans-serif" font-size="12px" font-style="normal" font-weight="normal" text-decoration="undefined" x="114.68517768736521" y="193.7330120602553" text-anchor="start" dominant-baseline="text-before-edge" transform="matrix(1 0 0 1 440.0597377273929 111.01901662726684)">date</text><text fill="#eee" stroke="none" font-family="Roboto, &quot;Helvetica Neue&quot;, Arial, sans-serif" font-size="12px" font-style="normal" font-weight="normal" text-decoration="undefined" x="-52.793986436169945" y="193.7330120602553" text-anchor="start" dominant-baseline="text-before-edge" transform="matrix(1 0 0 1 440.0597377273929 111.01901662726684)">last_checked_at</text><path fill="none" stroke="#eee" paint-order="fill stroke markers" d=" M 375.26575129122295 319.75202868752217 L 587.8907474765257 319.75202868752217" stroke-miterlimit="10" stroke-dasharray=""/><rect fill="#fff" stroke="none" x="227.21103159853152" y="-51.01901662726683" width="180" height="84" transform="matrix(1 0 0 1 440.0597377273929 111.01901662726684)"/><rect fill="#37f989" stroke="none" x="227.21103159853152" y="-51.01901662726683" width="180" height="30" transform="matrix(1 0 0 1 440.0597377273929 111.01901662726684)"/><text fill="#333" stroke="none" font-family="Roboto, &quot;Helvetica Neue&quot;, Arial, sans-serif" font-size="12px" font-style="normal" font-weight="bold" text-decoration="undefined" x="239.21103159853152" y="-42.01901662726683" text-anchor="start" dominant-baseline="text-before-edge" transform="matrix(1 0 0 1 440.0597377273929 111.01901662726684)">PriceHistory</text><rect fill="#50565e" stroke="none" x="227.21103159853152" y="-21.01901662726683" width="180" height="18" transform="matrix(1 0 0 1 440.0597377273929 111.01901662726684)"/><text fill="#eee" stroke="none" font-family="Roboto, &quot;Helvetica Neue&quot;, Arial, sans-serif" font-size="12px" font-style="normal" font-weight="normal" text-decoration="undefined" x="361.31519953676394" y="-18.01901662726683" text-anchor="start" dominant-baseline="text-before-edge" transform="matrix(1 0 0 1 440.0597377273929 111.01901662726684)">integer</text><text fill="#eee" stroke="none" font-family="Roboto, &quot;Helvetica Neue&quot;, Arial, sans-serif" font-size="12px" font-style="normal" font-weight="normal" text-decoration="undefined" x="239.21103159853152" y="-18.01901662726683" text-anchor="start" dominant-baseline="text-before-edge" transform="matrix(1 0 0 1 440.0597377273929 111.01901662726684)">track_id</text><path fill="none" stroke="#eee" paint-order="fill stroke markers" d=" M 667.2707693259244 108 L 847.2707693259244 108" stroke-miterlimit="10" stroke-dasharray=""/><rect fill="#50565e" stroke="none" x="227.21103159853152" y="-3.0190166272668293" width="180" height="18" transform="matrix(1 0 0 1 440.0597377273929 111.01901662726684)"/><text fill="#eee" stroke="none" font-family="Roboto, &quot;Helvetica Neue&quot;, Arial, sans-serif" font-size="12px" font-style="normal" font-weight="normal" text-decoration="undefined" x="361.31519953676394" y="-0.01901662726682929" text-anchor="start" dominant-baseline="text-before-edge" transform="matrix(1 0 0 1 440.0597377273929 111.01901662726684)">integer</text><text fill="#eee" stroke="none" font-family="Roboto, &quot;Helvetica Neue&quot;, Arial, sans-serif" font-size="12px" font-style="normal" font-weight="normal" text-decoration="undefined" x="239.21103159853152" y="-0.01901662726682929" text-anchor="start" dominant-baseline="text-before-edge" transform="matrix(1 0 0 1 440.0597377273929 111.01901662726684)">price</text><path fill="none" stroke="#eee" paint-order="fill stroke markers" d=" M 667.2707693259244 126 L 847.2707693259244 126" stroke-miterlimit="10" stroke-dasharray=""/><rect fill="#50565e" stroke="none" x="227.21103159853152" y="14.98098337273317" width="180" height="18" transform="matrix(1 0 0 1 440.0597377273929 111.01901662726684)"/><text fill="#eee" stroke="none" font-family="Roboto, &quot;Helvetica Neue&quot;, Arial, sans-serif" font-size="12px" font-style="normal" font-weight="normal" text-decoration="undefined" x="374.06519953676394" y="17.98098337273317" text-anchor="start" dominant-baseline="text-before-edge" transform="matrix(1 0 0 1 440.0597377273929 111.01901662726684)">date</text><text fill="#eee" stroke="none" font-family="Roboto, &quot;Helvetica Neue&quot;, Arial, sans-serif" font-size="12px" font-style="normal" font-weight="normal" text-decoration="undefined" x="239.21103159853152" y="17.98098337273317" text-anchor="start" dominant-baseline="text-before-edge" transform="matrix(1 0 0 1 440.0597377273929 111.01901662726684)">cheked_at</text><path fill="none" stroke="#eee" paint-order="fill stroke markers" d=" M 667.2707693259244 144 L 847.2707693259244 144" stroke-miterlimit="10" stroke-dasharray=""/><rect fill="#fff" stroke="none" x="-380.0597377273929" y="-9.992327109986812" width="180" height="66" transform="matrix(1 0 0 1 440.0597377273929 111.01901662726684)"/><rect fill="#d8b330" stroke="none" x="-380.0597377273929" y="-9.992327109986812" width="180" height="30" transform="matrix(1 0 0 1 440.0597377273929 111.01901662726684)"/><text fill="#333" stroke="none" font-family="Roboto, &quot;Helvetica Neue&quot;, Arial, sans-serif" font-size="12px" font-style="normal" font-weight="bold" text-decoration="undefined" x="-368.0597377273929" y="-0.9923271099868121" text-anchor="start" dominant-baseline="text-before-edge" transform="matrix(1 0 0 1 440.0597377273929 111.01901662726684)">Provider</text><rect fill="#50565e" stroke="none" x="-380.0597377273929" y="20.00767289001319" width="180" height="18" transform="matrix(1 0 0 1 440.0597377273929 111.01901662726684)"/><text fill="#333" stroke="none" font-family="Roboto, &quot;Helvetica Neue&quot;, Arial, sans-serif" font-size="12px" font-style="normal" font-weight="bold" text-decoration="undefined" x="-247.93473772739293" y="23.00767289001319" text-anchor="start" dominant-baseline="text-before-edge" transform="matrix(1 0 0 1 440.0597377273929 111.01901662726684)">integer</text><text fill="#333" stroke="none" font-family="Roboto, &quot;Helvetica Neue&quot;, Arial, sans-serif" font-size="12px" font-style="normal" font-weight="bold" text-decoration="undefined" x="-368.0597377273929" y="23.00767289001319" text-anchor="start" dominant-baseline="text-before-edge" transform="matrix(1 0 0 1 440.0597377273929 111.01901662726684)">id</text><path fill="none" stroke="#eee" paint-order="fill stroke markers" d=" M 60 149.02668951728003 L 240 149.02668951728003" stroke-miterlimit="10" stroke-dasharray=""/><rect fill="#50565e" stroke="none" x="-380.0597377273929" y="38.00767289001319" width="180" height="18" transform="matrix(1 0 0 1 440.0597377273929 111.01901662726684)"/><text fill="#eee" stroke="none" font-family="Roboto, &quot;Helvetica Neue&quot;, Arial, sans-serif" font-size="12px" font-style="normal" font-weight="normal" text-decoration="undefined" x="-240.1430697891605" y="41.00767289001319" text-anchor="start" dominant-baseline="text-before-edge" transform="matrix(1 0 0 1 440.0597377273929 111.01901662726684)">string</text><text fill="#eee" stroke="none" font-family="Roboto, &quot;Helvetica Neue&quot;, Arial, sans-serif" font-size="12px" font-style="normal" font-weight="normal" text-decoration="undefined" x="-368.0597377273929" y="41.00767289001319" text-anchor="start" dominant-baseline="text-before-edge" transform="matrix(1 0 0 1 440.0597377273929 111.01901662726684)">name</text><path fill="none" stroke="#eee" paint-order="fill stroke markers" d=" M 60 167.02668951728003 L 240 167.02668951728003" stroke-miterlimit="10" stroke-dasharray=""/><rect fill="#fff" stroke="none" x="-345.5115909976584" y="137.49845912391706" width="180" height="102" transform="matrix(1 0 0 1 440.0597377273929 111.01901662726684)"/><rect fill="#d8b330" stroke="none" x="-345.5115909976584" y="137.49845912391706" width="180" height="30" transform="matrix(1 0 0 1 440.0597377273929 111.01901662726684)"/><text fill="#333" stroke="none" font-family="Roboto, &quot;Helvetica Neue&quot;, Arial, sans-serif" font-size="12px" font-style="normal" font-weight="bold" text-decoration="undefined" x="-333.5115909976584" y="146.49845912391706" text-anchor="start" dominant-baseline="text-before-edge" transform="matrix(1 0 0 1 440.0597377273929 111.01901662726684)">TrackProvider</text><rect fill="#50565e" stroke="none" x="-345.5115909976584" y="167.49845912391706" width="180" height="18" transform="matrix(1 0 0 1 440.0597377273929 111.01901662726684)"/><text fill="#eee" stroke="none" font-family="Roboto, &quot;Helvetica Neue&quot;, Arial, sans-serif" font-size="12px" font-style="normal" font-weight="bold" text-decoration="undefined" x="-213.3865909976584" y="170.49845912391706" text-anchor="start" dominant-baseline="text-before-edge" transform="matrix(1 0 0 1 440.0597377273929 111.01901662726684)">integer</text><text fill="#eee" stroke="none" font-family="Roboto, &quot;Helvetica Neue&quot;, Arial, sans-serif" font-size="12px" font-style="normal" font-weight="bold" text-decoration="undefined" x="-333.5115909976584" y="170.49845912391706" text-anchor="start" dominant-baseline="text-before-edge" transform="matrix(1 0 0 1 440.0597377273929 111.01901662726684)">id</text><path fill="none" stroke="#eee" paint-order="fill stroke markers" d=" M 94.54814672973453 296.5174757511839 L 274.5481467297345 296.5174757511839" stroke-miterlimit="10" stroke-dasharray=""/><rect fill="#50565e" stroke="none" x="-345.5115909976584" y="185.49845912391706" width="180" height="18" transform="matrix(1 0 0 1 440.0597377273929 111.01901662726684)"/><text fill="#eee" stroke="none" font-family="Roboto, &quot;Helvetica Neue&quot;, Arial, sans-serif" font-size="12px" font-style="normal" font-weight="normal" text-decoration="undefined" x="-211.40742305942598" y="188.49845912391706" text-anchor="start" dominant-baseline="text-before-edge" transform="matrix(1 0 0 1 440.0597377273929 111.01901662726684)">integer</text><text fill="#eee" stroke="none" font-family="Roboto, &quot;Helvetica Neue&quot;, Arial, sans-serif" font-size="12px" font-style="normal" font-weight="normal" text-decoration="undefined" x="-333.5115909976584" y="188.49845912391706" text-anchor="start" dominant-baseline="text-before-edge" transform="matrix(1 0 0 1 440.0597377273929 111.01901662726684)">track_id</text><path fill="none" stroke="#eee" paint-order="fill stroke markers" d=" M 94.54814672973453 314.5174757511839 L 274.5481467297345 314.5174757511839" stroke-miterlimit="10" stroke-dasharray=""/><rect fill="#50565e" stroke="none" x="-345.5115909976584" y="203.49845912391706" width="180" height="18" transform="matrix(1 0 0 1 440.0597377273929 111.01901662726684)"/><text fill="#eee" stroke="none" font-family="Roboto, &quot;Helvetica Neue&quot;, Arial, sans-serif" font-size="12px" font-style="normal" font-weight="normal" text-decoration="undefined" x="-211.40742305942598" y="206.49845912391706" text-anchor="start" dominant-baseline="text-before-edge" transform="matrix(1 0 0 1 440.0597377273929 111.01901662726684)">integer</text><text fill="#eee" stroke="none" font-family="Roboto, &quot;Helvetica Neue&quot;, Arial, sans-serif" font-size="12px" font-style="normal" font-weight="normal" text-decoration="undefined" x="-333.5115909976584" y="206.49845912391706" text-anchor="start" dominant-baseline="text-before-edge" transform="matrix(1 0 0 1 440.0597377273929 111.01901662726684)">provider_id</text><path fill="none" stroke="#eee" paint-order="fill stroke markers" d=" M 94.54814672973453 332.5174757511839 L 274.5481467297345 332.5174757511839" stroke-miterlimit="10" stroke-dasharray=""/><rect fill="#50565e" stroke="none" x="-345.5115909976584" y="221.49845912391706" width="180" height="18" transform="matrix(1 0 0 1 440.0597377273929 111.01901662726684)"/><text fill="#eee" stroke="none" font-family="Roboto, &quot;Helvetica Neue&quot;, Arial, sans-serif" font-size="12px" font-style="normal" font-weight="normal" text-decoration="undefined" x="-218.03242305942598" y="224.49845912391706" text-anchor="start" dominant-baseline="text-before-edge" transform="matrix(1 0 0 1 440.0597377273929 111.01901662726684)">boolean</text><text fill="#eee" stroke="none" font-family="Roboto, &quot;Helvetica Neue&quot;, Arial, sans-serif" font-size="12px" font-style="normal" font-weight="normal" text-decoration="undefined" x="-333.5115909976584" y="224.49845912391706" text-anchor="start" dominant-baseline="text-before-edge" transform="matrix(1 0 0 1 440.0597377273929 111.01901662726684)">is_active</text><path fill="none" stroke="#eee" paint-order="fill stroke markers" d=" M 94.54814672973453 350.5174757511839 L 274.5481467297345 350.5174757511839" stroke-miterlimit="10" stroke-dasharray=""/></g><g><text fill="rgb(0,0,0)" stroke="none" font-family="Roboto, &quot;Helvetica Neue&quot;, Arial, sans-serif" font-size="12px" font-style="italic" font-weight="normal" text-decoration="undefined" x="10" y="474.6733730832961" text-anchor="start" dominant-baseline="text-after-edge" transform="matrix(1 0 0 1 0 0)" fill-opacity="0.35">Generated with erd.dbdesigner.net</text></g></g></svg>